<?xml version="1.0" encoding="UTF-8" standalone="no"?>
<!-- Created with Inkscape (http://www.inkscape.org/) -->
<svg
   xmlns:svg="http://www.w3.org/2000/svg"
   xmlns="http://www.w3.org/2000/svg"
   version="1.0"
   width="275"
   height="407"
   id="svg2"
   xml:space="preserve"><defs
     id="defs5" /><g
     transform="matrix(1.25,0,0,-1.25,-47.834074,1017.3233)"
     id="g11"><path
       d="M 115.78468,548.55159 C 113.80471,548.55159 112.15645,547.29695 111.51357,545.59297 L 102.83101,523.61933 L 102.06152,521.11867 L 101.37409,523.66353 L 94.649167,545.046 C 94.649167,545.12149 94.595864,545.1973 94.5714,545.2373 L 94.5714,545.28182 L 94.5714,545.28182 C 93.9462,547.08369 92.24924,548.34721 90.280115,548.34721 L 90.280115,548.34721 L 79.439989,548.34721 L 79.439989,548.34721 C 76.997603,548.22279 75.066837,546.22947 75.066837,543.77342 C 75.066837,543.1197 75.378,542.25172 75.580691,541.43768 L 76.997603,536.96649 L 71.685445,523.59236 L 70.844436,521.11867 L 70.161516,523.61933 L 63.470351,545.046 C 63.401101,545.12149 63.401101,545.1973 63.392491,545.2373 L 63.392491,545.28182 C 62.754172,547.08369 61.032109,548.34721 59.096787,548.34721 L 59.096787,548.34721 L 48.245637,548.34721 L 48.245637,548.34721 C 45.852044,548.22279 43.881185,546.22947 43.881185,543.77342 C 43.881185,543.1197 44.136724,542.25172 44.412899,541.43768 L 60.643086,493.05883 C 61.13457,491.08347 62.95882,489.624 65.060886,489.624 C 67.116483,489.624 68.840367,490.95845 69.400735,492.814 L 80.770249,521.49713 L 81.611259,524.05979 L 82.289669,521.53285 L 91.855115,493.05883 C 92.348922,491.08347 94.128981,489.624 96.281981,489.624 C 98.366279,489.624 100.09071,491.01226 100.68024,492.95164 L 119.91318,541.95837 C 120.19382,542.56804 120.37601,543.2351 120.37601,543.92485 C 120.37601,546.48278 118.30041,548.55159 115.78468,548.55159 L 115.78468,548.55159 z"
       id="path97"
       style="fill:#231f20;fill-opacity:1;fill-rule:nonzero;stroke:none" /><path
       d="M 196.66409,548.55159 C 194.68867,548.55159 193.00706,547.29695 192.36424,545.59297 L 183.72641,523.61933 L 182.88767,521.11867 L 182.26029,523.66353 L 175.49765,545.046 C 175.49765,545.12149 175.49765,545.1973 175.47122,545.2373 L 175.47122,545.28182 L 175.47122,545.28182 C 174.81924,547.08369 173.10628,548.34721 171.13311,548.34721 L 171.13311,548.34721 L 160.29526,548.34721 L 160.29526,548.34721 C 157.87059,548.22279 155.94165,546.22947 155.94165,543.77342 C 155.94165,543.1197 156.1955,542.25172 156.48019,541.43768 L 157.89291,536.96649 L 152.56258,523.59236 L 151.69286,521.11867 L 151.03459,523.61933 L 144.35892,545.046 C 144.28739,545.12149 144.28739,545.1973 144.2473,545.2373 L 144.2473,545.28182 C 143.63135,547.08369 141.93389,548.34721 139.98299,548.34721 L 139.98299,548.34721 L 129.11821,548.34721 L 129.11821,548.34721 C 126.6582,548.22279 124.73604,546.22947 124.73604,543.77342 C 124.73604,543.1197 125.04534,542.25172 125.26133,541.43768 L 141.54245,493.05883 C 142.02947,491.08347 143.80488,489.624 145.9402,489.624 C 147.96259,489.624 149.69107,490.95845 150.30247,492.814 L 161.66104,521.49713 L 162.44647,524.05979 L 163.16721,521.53285 L 172.70168,493.05883 C 173.21512,491.08347 175.00603,489.624 177.13724,489.624 C 179.2147,489.624 180.99245,491.01226 181.55504,492.95164 L 200.7971,541.95837 C 201.07546,542.56804 201.2377,543.2351 201.2377,543.92485 C 201.2377,546.48278 199.17573,548.55159 196.66409,548.55159 L 196.66409,548.55159 z"
       id="path99"
       style="fill:#231f20;fill-opacity:1;fill-rule:nonzero;stroke:none" /><path
       d="M 249.18744,548.44498 C 249.12547,548.44498 211.26606,548.44498 211.26606,548.44498 L 211.26606,548.44498 C 209.07462,548.44498 207.32207,546.68798 207.32207,544.47179 L 207.32207,544.47179 L 207.31515,544.46331 C 207.31515,544.46344 207.31515,540.54802 207.31515,534.87085 C 207.31515,521.19011 207.31515,494.11756 207.31515,494.11756 C 207.31515,494.07751 207.31515,494.13523 207.31515,494.11756 L 207.32207,494.11756 C 207.42635,491.83951 209.29289,489.98856 211.57763,489.98856 L 211.57763,489.98856 C 218.36898,489.98856 222.32628,489.98856 222.32628,489.98856 L 222.32628,489.98856 C 224.63965,490.04655 226.45975,491.88429 226.51938,494.24184 C 226.51938,493.82823 226.51938,517.75961 226.51938,517.75961 C 226.51929,517.75961 241.91135,517.80439 241.98237,517.80439 C 244.2403,517.82206 246.05539,519.65939 246.05539,521.96883 C 246.05539,524.22899 244.20704,526.11092 241.8913,526.11092 C 241.84209,526.11092 226.53947,526.11092 226.53947,526.11092 L 226.51938,539.56491 C 226.51929,539.56504 249.30999,539.56491 249.41021,539.56491 C 251.76795,539.67152 253.64532,541.61591 253.64532,544.01356 C 253.64532,546.4743 251.63214,548.44498 249.18744,548.44498 L 249.18744,548.44498 z"
       id="path101"
       style="fill:#231f20;fill-opacity:1;fill-rule:nonzero;stroke:none" /><path
       d="M 190.382,708.96274 C 197.27817,701.23471 198.00984,678.2396 215.35903,687.3891 C 225.78097,692.87925 225.63874,716.08139 211.73072,724.45912 C 200.48831,731.10382 194.32193,722.14116 190.25311,711.12973 C 189.93739,710.27077 189.91056,709.40977 190.382,708.96274 L 190.382,708.96274 z"
       id="path103"
       style="fill:#231f20;fill-opacity:1;fill-rule:nonzero;stroke:none" /><path
       d="M 163.4406,712.63767 C 156.1955,706.63394 151.21911,690.15905 137.87864,695.74698 C 127.11414,701.23471 126.0755,722.57719 144.64143,732.44505 C 157.58585,738.3954 164.15948,726.60342 164.23692,714.09922 C 164.23692,713.65904 163.81009,713.0025 163.4406,712.63767 L 163.4406,712.63767 z"
       id="path105"
       style="fill:#231f20;fill-opacity:1;fill-rule:nonzero;stroke:none" /><path
       d="M 181.33272,670.621 C 188.49546,671.35927 186.88265,677.99505 181.453,679.66147 C 176.61018,681.10482 169.24698,682.04606 164.05925,681.95275 C 154.84961,681.73908 155.07882,674.70523 159.87015,673.51706 C 163.48065,672.29788 165.82563,671.82629 168.95774,667.7957 C 171.82063,662.24759 170.5459,669.46409 181.33272,670.621 L 181.33272,670.621 z"
       id="path107"
       style="fill:#231f20;fill-opacity:1;fill-rule:nonzero;stroke:none" /><path
       d="M 215.11657,789.44634 C 224.11709,804.41328 239.74873,801.51664 247.60796,794.04916 C 256.22398,785.94509 257.61169,776.57964 254.30419,769.99071 C 249.79249,761.15683 238.28954,750.41708 230.79965,760.81023 C 227.49393,765.39245 220.45561,770.87582 216.62911,772.45993 C 210.73895,774.94459 209.61767,780.25903 215.11657,789.44634 L 215.11657,789.44634 z"
       id="path109"
       style="fill:#231f20;fill-opacity:1;fill-rule:nonzero;stroke:none" /><path
       d="M 250.90959,723.42221 C 250.10639,726.06957 248.78479,725.92693 248.84255,723.73378 C 249.5679,696.44115 233.2912,667.20412 198.39481,667.00808 C 189.48312,666.9904 192.15745,652.7088 175.89127,659.88971 C 164.15948,667.7957 157.45018,652.21928 149.09927,668.98819 C 147.28195,673.82417 144.52111,675.74158 140.96846,676.62906 C 106.5349,685.16275 95.552681,732.56086 125.89956,770.82935 C 131.90598,767.24813 134.10828,766.6941 140.51465,772.56658 C 143.83586,775.65217 149.45504,779.06445 152.51155,780.18559 C 159.79684,782.97518 163.75906,786.08271 157.45018,800.00396 C 149.34159,818.07397 132.76243,812.97312 125.17427,806.71981 C 116.63206,799.6568 110.61011,788.28292 121.63935,774.88915 C 90.776246,754.08517 85.497391,728.51642 86.207193,706.30459 C 86.941184,682.67103 80.888292,684.68211 88.429532,660.62799 C 89.10571,658.52843 87.620004,658.57239 86.494255,659.2535 C 54.325408,679.84139 36.953982,742.62244 87.070524,777.23572 C 88.184883,778.24804 87.731212,779.5583 83.615829,777.14912 C 40.232867,754.2074 36.246506,709.77012 43.438404,679.84139 C 46.959978,665.34443 41.611875,662.67457 47.233329,643.6285 C 60.144585,603.92926 71.151501,600.79726 86.698767,599.64048 C 114.99925,599.64048 95.805986,615.2524 96.846951,634.85942 C 96.846951,636.00685 98.235207,636.5587 99.038311,634.1965 C 114.61469,599.26691 125.60799,567.49154 166.55726,570.45475 C 190.25311,573.54685 177.09943,585.31464 175.66251,591.98808 C 158.22184,649.82107 200.51696,663.45771 188.54927,607.06595 C 180.65208,574.7655 205.62228,578.00483 223.22055,589.58993 C 241.36829,601.50477 264.05183,680.14157 250.90959,723.42221 L 250.90959,723.42221 M 181.95095,655.00882 C 178.02932,644.63845 157.67928,648.19287 157.04506,658.23047 C 157.04506,658.63035 157.58585,658.54597 157.82826,658.49271 C 166.89302,656.36618 175.49765,655.36919 181.34593,655.39173 C 181.55504,655.39173 182.04207,655.51588 181.95095,655.00882 L 181.95095,655.00882 z"
       id="path111"
       style="fill:#231f20;fill-opacity:1;fill-rule:nonzero;stroke:none" /><path
       d="M 91.110234,584.90949 C 91.110234,580.71414 87.69103,577.33262 83.520202,577.33262 C 79.344727,577.33262 75.956546,580.71414 75.956546,584.90949 C 75.956546,589.06505 79.344727,592.46399 83.520202,592.46399 C 87.69103,592.46399 91.110234,589.06505 91.110234,584.90949 M 83.520202,593.97237 C 78.52381,593.97237 74.434942,589.8969 74.434942,584.90949 C 74.434942,579.88676 78.52381,575.80686 83.520202,575.80686 C 88.551674,575.80686 92.582638,579.88676 92.582638,584.90949 C 92.582638,589.8969 88.551674,593.97237 83.520202,593.97237 z"
       id="path113"
       style="fill:#231f20;fill-opacity:1;fill-rule:nonzero;stroke:none" /><path
       d="M 86.116075,583.49052 C 85.940265,582.39161 85.01265,581.62608 83.755693,581.62608 C 82.01404,581.62608 80.901503,583.1702 80.901503,584.92744 C 80.901503,586.77391 81.898368,588.14841 83.747082,588.14841 C 84.970327,588.14841 85.86687,587.4413 86.116075,586.36015 L 87.39089,586.36015 C 87.165787,588.36641 85.59762,589.48769 83.707037,589.48769 C 80.999455,589.48769 79.439989,587.52108 79.439989,584.92744 C 79.439989,582.33361 81.130617,580.35377 83.755693,580.35377 C 85.59762,580.35377 87.070524,581.53739 87.446427,583.49052 L 86.116075,583.49052 z"
       id="path115"
       style="fill:#231f20;fill-opacity:1;fill-rule:nonzero;stroke:none" /><path
       d="M 250.71368,563.22933 C 250.71368,559.04278 247.29681,555.6438 243.13231,555.6438 C 238.90586,555.6438 235.51999,559.04278 235.51999,563.22933 C 235.51999,567.41145 238.90586,570.78814 243.13231,570.78814 C 247.29681,570.78814 250.71368,567.41145 250.71368,563.22933 M 243.13231,572.31864 C 238.07401,572.31864 234.04067,568.25246 234.04067,563.22933 C 234.04067,558.1927 238.07401,554.15755 243.13231,554.15755 C 248.10861,554.15755 252.19293,558.1927 252.19293,563.22933 C 252.19293,568.25246 248.10861,572.31864 243.13231,572.31864 z"
       id="path117"
       style="fill:#231f20;fill-opacity:1;fill-rule:nonzero;stroke:none" /><path
       d="M 241.55098,562.62427 L 243.03022,562.62427 L 245.31684,558.92725 L 246.74053,558.92725 L 244.29131,562.7177 C 245.56604,562.87803 246.52049,563.54076 246.52049,565.04483 C 246.52049,566.75718 245.53274,567.49154 243.51045,567.49154 L 240.21379,567.49154 L 240.21379,558.92725 L 241.55098,558.92725 L 241.55098,562.62427 M 241.55098,563.75001 L 241.55098,566.41459 L 243.29723,566.41459 C 244.20704,566.41459 245.17014,566.18365 245.17014,565.14213 C 245.17014,563.80773 244.20704,563.75001 243.0791,563.75001 L 241.55098,563.75001 z"
       id="path119"
       style="fill:#231f20;fill-opacity:1;fill-rule:nonzero;stroke:none" /></g></svg>